# Blender v2.79 (sub 0) OBJ File: 'model.blend'
# www.blender.org
mtllib model.mtl
o Cylinder.021_Cylinder.025
v -0.000010 -1.964310 2.226907
v -0.499998 -2.490057 1.538760
v 0.499974 -2.490057 1.538758
v 0.499436 2.490116 -1.538764
v -0.500519 2.489878 -1.538809
v -1.309527 2.489686 -0.951087
v -1.618573 2.489612 -0.000087
v -1.309613 2.489685 0.950941
v -0.500659 2.489878 1.538736
v 0.499297 2.490116 1.538781
v 1.308304 2.490309 0.951059
v 1.617350 2.490382 0.000059
v 1.308390 2.490309 -0.950969
v -2.927121 -0.263220 0.425234
v -2.618161 -0.263147 1.376262
v -2.118297 0.262657 2.064430
v -1.618459 1.113351 2.226882
v -1.309569 1.964001 1.801568
v -1.309613 2.489685 0.950941
v -1.618573 2.489612 -0.000087
v -2.118437 1.963808 -0.688255
v -2.618275 1.113113 -0.850708
v -2.927165 0.262464 -0.425392
v -0.500632 2.489795 1.538727
v -1.309613 2.489686 0.950941
v -1.309570 1.963991 1.801581
v -1.309498 2.489604 -0.951095
v -2.118446 1.963800 -0.688267
v -1.618573 2.489612 -0.000087
v -1.309020 -1.964372 -1.801652
v -1.308977 -2.490057 -0.951026
v -1.617980 -2.490057 -0.000012
v -2.118001 -1.964372 0.688133
v -2.618048 -1.113797 0.850563
v -2.927121 -0.263221 0.425234
v -2.927165 0.262463 -0.425392
v -2.618161 0.262463 -1.376406
v -2.118141 -0.263221 -2.064552
v -1.618093 -1.113797 -2.226981
v -1.308941 -2.489983 0.950998
v -2.118001 -1.964372 0.688134
v -1.617972 -2.490065 -0.000024
v -2.618195 1.113097 -0.850701
v -2.618162 0.262463 -1.376407
v -2.927170 0.262464 -0.425377
v -2.618081 -0.263149 1.376244
v -2.927126 -0.263207 0.425227
v -2.618048 -1.113797 0.850563
v -0.499969 -2.489975 -1.538775
v -1.308977 -2.490057 -0.951026
v -1.309020 -1.964364 -1.801667
v -1.309132 -0.263149 -2.652286
v -1.618093 -1.113797 -2.226981
v -2.118149 -0.263207 -2.064549
v -0.000272 -1.113649 2.752783
v -0.500320 -0.263073 2.915212
v -1.309317 0.262583 2.652308
v -2.118254 0.262538 2.064489
v -2.618145 -0.263192 1.376284
v -2.618048 -1.113796 0.850563
v -2.118001 -1.964372 0.688134
v -1.309004 -2.490028 0.951038
v -0.500066 -2.489983 1.538857
v -0.000175 -1.964252 2.227062
v -1.618328 1.113189 2.226955
v -2.118268 0.262539 2.064480
v -1.309317 0.262583 2.652308
v -0.500546 2.489684 -1.539112
v -0.000525 1.963999 -2.227258
v -0.000429 1.113350 -2.752906
v -0.500293 0.262656 -2.915276
v -1.309187 -0.263148 -2.652348
v -2.118141 -0.263221 -2.064553
v -2.618161 0.262463 -1.376407
v -2.618258 1.113112 -0.850759
v -2.118394 1.963807 -0.688389
v -1.309499 2.489611 -0.951317
v 0.499672 0.262777 -2.915286
v -0.500299 0.262640 -2.915280
v -0.000428 1.113350 -2.752906
v 1.308756 -0.263075 -2.652549
v 1.617829 -1.113651 -2.227220
v 1.308896 -1.964254 -1.801845
v 0.499959 -2.489984 -1.538904
v -0.499996 -2.490030 -1.538830
v -1.309020 -1.964373 -1.801652
v -1.618093 -1.113797 -2.226982
v -1.309160 -0.263194 -2.652356
v -0.500223 0.262536 -2.915298
v 0.499733 0.262581 -2.915371
v 1.308972 -2.489893 -0.951171
v 0.499948 -2.489995 -1.538899
v 1.308897 -1.964254 -1.801845
v 1.617943 -2.490057 -0.000013
v 1.308939 -2.490057 0.951001
v 0.499959 -2.490057 1.538760
v -0.499996 -2.490057 1.538760
v -1.308977 -2.490057 0.951001
v -1.617980 -2.490057 -0.000013
v -1.308977 -2.490057 -0.951026
v -0.499997 -2.490057 -1.538785
v 0.499959 -2.490057 -1.538785
v 1.308940 -2.490057 -0.951026
v 2.618124 -0.261900 1.376498
v 2.927170 -0.261826 0.425498
v 2.927041 0.263858 -0.425128
v 2.617785 1.114360 -0.850471
v 2.117527 1.964817 -0.688064
v 1.617350 2.490382 0.000059
v 1.308303 2.490309 0.951059
v 1.308433 1.964624 1.801685
v 1.617690 1.114122 2.227028
v 2.117947 0.263665 2.064621
v 2.618043 0.263712 -1.376150
v 2.617784 1.114361 -0.850470
v 2.927044 0.263845 -0.425119
v 0.499269 2.490042 1.538755
v 1.308433 1.964624 1.801685
v 1.308305 2.490315 0.951044
v 1.308902 0.263416 2.652321
v 2.117947 0.263666 2.064621
v 1.617681 1.114137 2.227029
v 2.618377 -1.112533 0.850809
v 2.927170 -0.261827 0.425498
v 2.618119 -0.261899 1.376513
v 1.308354 2.490236 -0.950968
v 1.617341 2.490394 0.000069
v 2.117526 1.964818 -0.688064
v 1.310211 -2.489432 -0.950909
v 1.310081 -1.963747 -1.801535
v 1.618788 -1.113025 -2.226836
v 2.118416 -0.262212 -2.064361
v 2.618124 0.263711 -1.376169
v 2.927041 0.263858 -0.425128
v 2.927170 -0.261827 0.425499
v 2.618463 -1.112549 0.850799
v 2.118835 -1.963363 0.688324
v 1.619127 -2.489285 0.000132
v 1.309460 -0.262524 -2.652169
v 2.118424 -0.262197 -2.064358
v 1.618788 -1.113025 -2.226836
v 0.000854 -1.964060 2.227229
v 0.501031 -2.489625 1.539106
v 1.310012 -2.489359 0.951347
v 2.118793 -1.963363 0.688457
v 2.618448 -1.112549 0.850850
v 2.618124 -0.261900 1.376498
v 2.117947 0.263665 2.064621
v 1.308967 0.263399 2.652380
v 0.500185 -0.262597 2.915270
v 0.000531 -1.113411 2.752877
v 1.618983 -2.489285 0.000315
v 2.118793 -1.963362 0.688457
v 1.309998 -2.489367 0.951352
v -1.618233 1.113204 2.227119
v -1.308977 0.262703 2.652463
v -0.499840 -0.262761 2.915322
v 0.500115 -0.262478 2.915294
v 1.308939 0.263445 2.652390
v 1.617689 1.114121 2.227029
v 1.308433 1.964623 1.801685
v 0.499297 2.490087 1.538826
v -0.500659 2.489804 1.538854
v -1.309483 1.963881 1.801759
v 0.000382 -1.113247 2.752859
v 0.500132 -0.262477 2.915293
v -0.499840 -0.262761 2.915322
v 0.500351 0.263134 -2.915216
v 0.000094 1.113591 -2.752809
v -0.000229 1.964195 -2.227087
v 0.499506 2.490043 -1.538859
v 1.308416 2.490281 -0.951005
v 2.117527 1.964818 -0.688064
v 2.617784 1.114361 -0.850471
v 2.618107 0.263757 -1.376192
v 2.118372 -0.262092 -2.064420
v 1.309461 -0.262329 -2.652275
v -0.500466 2.489706 -1.538954
v 0.499506 2.490043 -1.538859
v -0.000237 1.964186 -2.227099
vn 0.0000 -0.7946 0.6071
vn -0.3569 0.7946 0.4911
vn -0.5774 0.7946 -0.1877
vn -0.5773 -0.7947 0.1876
vn -0.9342 0.1876 -0.3035
vn -0.9341 -0.1876 0.3036
vn -0.3567 -0.7947 -0.4911
vn -0.5773 -0.1876 -0.7947
vn -0.5774 0.1876 0.7946
vn -0.0000 0.1875 -0.9823
vn 0.3568 -0.7947 -0.4911
vn 0.9341 0.1879 -0.3035
vn 0.3565 0.7948 0.4911
vn 0.5772 0.1878 0.7947
vn 0.9342 -0.1873 0.3036
vn 0.5771 0.7948 -0.1876
vn 0.5775 -0.1874 -0.7946
vn 0.5776 -0.7944 0.1876
vn 0.0001 -0.1876 0.9822
vn -0.0002 0.7947 -0.6070
vn -0.0002 1.0000 0.0000
vn -0.8507 0.4471 0.2763
vn -0.8506 -0.4473 -0.2764
vn -0.5258 -0.4473 0.7236
vn -0.5258 0.4471 -0.7236
vn -0.0000 -0.4473 -0.8944
vn -0.0000 -1.0000 0.0000
vn 0.8505 0.4475 0.2764
vn 0.8509 -0.4469 -0.2763
vn 0.5259 -0.4470 0.7236
vn -0.0001 0.4473 0.8944
vn 0.5257 0.4474 -0.7235
usemtl yellow
s off
f 1//1 2//1 3//1
f 24//2 25//2 26//2
f 27//3 28//3 29//3
f 40//4 41//4 42//4
f 43//5 44//5 45//5
f 46//6 47//6 48//6
f 49//7 50//7 51//7
f 52//8 53//8 54//8
f 65//9 66//9 67//9
f 78//10 79//10 80//10
f 91//11 92//11 93//11
f 114//12 115//12 116//12
f 117//13 118//13 119//13
f 120//14 121//14 122//14
f 123//15 124//15 125//15
f 126//16 127//16 128//16
f 139//17 140//17 141//17
f 152//18 153//18 154//18
f 165//19 166//19 167//19
f 178//20 179//20 180//20
usemtl red
f 4//21 5//21 6//21 7//21 8//21 9//21 10//21 11//21 12//21 13//21
f 14//22 15//22 16//22 17//22 18//22 19//22 20//22 21//22 22//22 23//22
f 30//23 31//23 32//23 33//23 34//23 35//23 36//23 37//23 38//23 39//23
f 55//24 56//24 57//24 58//24 59//24 60//24 61//24 62//24 63//24 64//24
f 68//25 69//25 70//25 71//25 72//25 73//25 74//25 75//25 76//25 77//25
f 81//26 82//26 83//26 84//26 85//26 86//26 87//26 88//26 89//26 90//26
f 94//27 95//27 96//27 97//27 98//27 99//27 100//27 101//27 102//27 103//27
f 104//28 105//28 106//28 107//28 108//28 109//28 110//28 111//28 112//28 113//28
f 129//29 130//29 131//29 132//29 133//29 134//29 135//29 136//29 137//29 138//29
f 142//30 143//30 144//30 145//30 146//30 147//30 148//30 149//30 150//30 151//30
f 155//31 156//31 157//31 158//31 159//31 160//31 161//31 162//31 163//31 164//31
f 168//32 169//32 170//32 171//32 172//32 173//32 174//32 175//32 176//32 177//32
