# Blender v2.79 (sub 0) OBJ File: 'model.blend'
# www.blender.org
mtllib model.mtl
o Cube_Cube.002
v -1.000000 -0.612373 -0.000000
v -0.500000 -0.612372 0.866025
v -1.000000 0.204124 0.577350
v 0.000000 1.020621 -0.577350
v -0.500000 1.020621 0.288675
v 0.500000 1.020621 0.288675
v 0.500000 -0.612372 0.866025
v 1.000000 -0.612372 0.000000
v 1.000000 0.204124 0.577350
v 0.500000 -0.612372 -0.866025
v -0.500000 -0.612373 -0.866025
v -0.000000 0.204124 -1.154701
vn 0.8165 0.3333 -0.4714
vn 0.0000 -1.0000 0.0000
vn -0.0000 0.3333 0.9428
vn -0.8165 -0.3333 0.4714
vn -0.0000 1.0000 -0.0000
vn 0.8165 -0.3333 0.4714
vn -0.0000 -0.3333 -0.9428
vn -0.8165 0.3333 -0.4714
usemtl None
s off
f 10//1 12//1 4//1 6//1 9//1 8//1
f 8//2 7//2 2//2 1//2 11//2 10//2
f 7//3 9//3 6//3 5//3 3//3 2//3
f 1//4 2//4 3//4
f 4//5 5//5 6//5
f 7//6 8//6 9//6
f 10//7 11//7 12//7
f 1//8 3//8 5//8 4//8 12//8 11//8
