# Blender v2.79 (sub 0) OBJ File: 'model.blend'
# www.blender.org
mtllib model.mtl
o Cylinder.022
v 1.396907 0.492573 -1.580937
v 1.652882 1.110818 -0.837837
v 1.818993 0.765997 0.834434
v 1.005694 1.826701 -0.575910
v -0.702494 1.981334 -0.541090
v 0.183278 2.152976 -0.109939
v 0.139282 1.883642 -1.071951
v -1.360461 1.451132 0.838713
v -1.477726 1.394217 -0.774022
v -2.157304 0.106033 0.132498
v -1.844319 0.583571 0.953441
v -1.960998 -0.867696 0.247671
v -0.603130 0.132517 2.048425
v -1.139286 0.853354 1.609251
v -1.454580 -0.095029 1.575984
v -0.802508 -0.817144 1.806837
v -1.526689 -0.991956 1.139795
v -1.339455 -1.636391 0.398452
v -0.630020 2.016509 0.455631
v 0.353221 0.424522 2.063666
v 0.127924 -0.549722 2.057836
v -0.603060 0.132567 2.048417
v 1.199983 0.715407 1.618330
v 0.408047 1.325766 1.633900
v -0.514349 1.590811 1.353043
v 1.162356 1.501494 1.001379
v 0.280115 1.952003 0.864870
v -0.715531 1.493169 -1.413718
v -0.487565 0.715504 -1.999566
v -0.069717 -0.177360 -2.167294
v 0.508126 0.625343 -2.019890
v 1.396779 0.492517 -1.581024
v 0.895540 1.347288 -1.446601
v -1.884371 1.066533 0.078745
v -1.968655 0.523223 -0.756512
v -1.367131 0.742768 -1.524573
v -2.008096 -0.472186 -0.669623
v -1.587196 -1.368883 -0.532803
v -0.555256 -0.992250 -1.850489
v -1.034809 -0.116954 -1.912372
v -1.430951 -0.867838 -1.383980
v 1.610807 1.424069 0.110872
v 0.895604 1.347326 -1.446555
v 1.657254 -0.435398 -1.314391
v 0.539955 -2.069544 0.158080
v 0.824573 -1.833389 -0.770991
v 1.618307 -1.228573 -0.706690
v 1.824243 -1.090932 0.262121
v 1.157785 -1.610681 0.796578
v 2.057417 -0.167941 0.568167
v 1.200014 0.715261 1.618270
v 1.055946 -0.249956 1.836329
v 1.585850 -0.795805 1.187329
v 0.128094 -0.550009 2.057693
v 0.762401 -1.177886 1.606728
v 0.353309 0.424266 2.063645
v 1.162314 1.501410 1.001429
v 1.818954 0.765948 0.834506
v 0.224141 -1.833411 1.077018
v -0.603060 0.132120 2.048390
v -0.802249 -0.817538 1.806695
v 0.128027 -0.550059 2.057663
v -1.526435 -0.992451 1.139685
v -0.438171 -2.069561 0.366023
v -1.339060 -1.636777 0.398259
v -0.742844 -1.610694 1.200624
v -0.129153 -2.069541 -0.585047
v 0.114882 -1.610680 -1.439356
v -0.839069 -1.636768 -1.140628
v -0.554905 -0.992439 -1.850581
v -1.430674 -0.868225 -1.384131
v -1.960802 -0.868225 0.247436
v -1.586836 -1.369298 -0.532960
v -1.339060 -1.636767 0.398174
v 1.014201 -1.177877 -1.501944
v 0.900242 -0.292149 -1.951887
v 0.508246 0.625267 -2.019933
v -0.069484 -0.177511 -2.167367
v -1.034569 -0.117186 -1.912571
v 2.074132 -0.390664 -0.406559
v 2.071430 0.564948 -0.112032
vn -0.4328 -0.8905 -0.1406
vn 0.8984 0.1317 -0.4190
vn 0.8606 0.4938 -0.1249
vn 0.8872 0.4385 0.1435
vn 0.6895 0.6963 -0.1993
vn 0.4329 0.8904 0.1406
vn -0.0224 0.9787 0.2040
vn -0.1800 0.9834 -0.0216
vn -0.0566 0.9621 -0.2668
vn -0.6067 0.7947 0.0161
vn -0.8123 0.4940 0.3100
vn -0.6927 0.4598 0.5556
vn -0.9402 0.2782 0.1966
vn -0.8984 -0.1316 0.4190
vn -0.7078 0.2117 0.6739
vn -0.5087 0.1393 0.8496
vn -0.4546 -0.1288 0.8813
vn -0.6028 -0.3092 0.7355
vn -0.7703 -0.5647 0.2963
vn -0.3976 0.8081 0.4346
vn -0.4793 0.6215 0.6197
vn -0.1464 0.4330 0.8894
vn -0.0152 -0.0025 0.9999
vn 0.3191 0.3920 0.8628
vn 0.0323 0.7776 0.6279
vn 0.3014 0.7633 0.5714
vn 0.4490 0.5649 0.6923
vn -0.1343 0.8885 0.4388
vn -0.4603 0.7777 -0.4282
vn -0.5670 0.5789 -0.5860
vn -0.2008 0.8562 -0.4760
vn 0.0389 0.6085 -0.7926
vn -0.4081 0.4700 -0.7827
vn -0.4593 0.2116 -0.8627
vn -0.2511 0.0639 -0.9658
vn -0.0035 0.1830 -0.9831
vn 0.4538 0.3920 -0.8003
vn -0.8511 0.4752 -0.2232
vn -0.9601 0.2685 -0.0778
vn -0.7681 0.4233 -0.4805
vn -0.7839 -0.0231 -0.6205
vn -0.9800 0.0216 -0.1978
vn -0.9788 -0.2017 -0.0367
vn -0.8873 -0.4384 -0.1435
vn -0.4804 -0.3209 -0.8162
vn -0.8022 -0.4384 -0.4053
vn 0.2175 0.9373 -0.2724
vn 0.3318 0.8080 -0.4868
vn 0.7414 0.5887 0.3221
vn 0.5747 0.6840 -0.4493
vn 0.8629 -0.3334 -0.3798
vn 0.8897 -0.4386 -0.1268
vn 0.6068 -0.7947 -0.0161
vn 0.7374 -0.5649 0.3702
vn 0.8818 -0.3334 0.3336
vn 0.7839 0.0232 0.6205
vn 0.5507 -0.3605 0.7528
vn 0.3168 -0.3210 0.8925
vn 0.2511 -0.0639 0.9658
vn 0.4231 0.1391 0.8953
vn 0.6754 0.4750 0.5641
vn 0.5670 -0.5789 0.5860
vn 0.3128 -0.8885 0.3358
vn 0.0567 -0.9621 0.2667
vn 0.3485 -0.7454 0.5683
vn -0.0389 -0.6085 0.7926
vn -0.2006 -0.2019 0.9586
vn -0.4885 -0.5526 0.6753
vn -0.1492 -0.8885 0.4340
vn -0.4000 -0.8569 0.3251
vn -0.5747 -0.6841 0.4492
vn 0.2027 -0.9621 -0.1825
vn 0.1344 -0.8885 -0.4388
vn 0.0000 -1.0000 -0.0000
vn -0.1326 -0.8569 -0.4981
vn -0.2009 -0.6841 -0.7012
vn -0.4489 -0.5649 -0.6924
vn -0.6145 -0.6254 -0.4809
vn -0.7798 -0.6254 0.0279
vn 0.5592 -0.6841 -0.4684
vn 0.6928 -0.4597 -0.5556
vn 0.3179 -0.7454 -0.5860
vn 0.1465 -0.4330 -0.8894
vn 0.5776 -0.3094 -0.7554
vn 0.6390 -0.0413 -0.7681
vn 0.4546 0.1289 -0.8813
vn 0.2193 0.0213 -0.9754
vn -0.2618 -0.2102 -0.9419
vn 0.9602 -0.2684 0.0778
vn 0.9998 -0.0026 0.0177
vn 0.9589 0.1830 0.2169
vn 0.6375 0.4699 -0.6105
usemtl None
s off
f 73//1 69//1 67//1 64//1 74//1
f 1//2 2//2 81//2 80//2 44//2
f 42//3 81//3 2//3
f 3//4 81//4 42//4
f 4//5 42//5 2//5
f 27//6 26//6 42//6 4//6 6//6
f 19//7 27//7 6//7
f 5//8 19//8 6//8
f 7//9 5//9 6//9
f 34//10 8//10 19//10 5//10 9//10
f 11//11 8//11 34//11
f 14//12 8//12 11//12
f 10//13 11//13 34//13
f 17//14 15//14 11//14 10//14 12//14
f 14//15 11//15 15//15
f 13//16 14//16 15//16
f 16//17 13//17 15//17
f 16//18 15//18 17//18
f 18//19 17//19 12//19
f 25//20 19//20 8//20
f 14//21 25//21 8//21
f 20//22 24//22 25//22 14//22 13//22
f 21//23 20//23 22//23
f 23//24 24//24 20//24
f 27//25 25//25 24//25
f 26//26 27//26 24//26
f 23//27 26//27 24//27
f 27//28 19//28 25//28
f 28//29 9//29 5//29
f 36//30 9//30 28//30
f 7//31 28//31 5//31
f 31//32 29//32 28//32 7//32 33//32
f 36//33 28//33 29//33
f 40//34 36//34 29//34
f 30//35 40//35 29//35
f 30//36 29//36 31//36
f 32//37 31//37 33//37
f 35//38 34//38 9//38
f 10//39 34//39 35//39
f 36//40 35//40 9//40
f 41//41 37//41 35//41 36//41 40//41
f 10//42 35//42 37//42
f 12//43 10//43 37//43
f 38//44 12//44 37//44
f 39//45 41//45 40//45
f 38//46 37//46 41//46
f 7//47 6//47 4//47
f 43//48 7//48 4//48
f 3//49 42//49 26//49
f 43//50 4//50 2//50
f 47//51 44//51 80//51
f 48//52 47//52 80//52
f 45//53 46//53 47//53 48//53 49//53
f 53//54 49//54 48//54
f 50//55 53//55 48//55
f 51//56 52//56 53//56 50//56 58//56
f 55//57 53//57 52//57
f 54//58 55//58 52//58
f 56//59 54//59 52//59
f 56//60 52//60 51//60
f 57//61 51//61 58//61
f 55//62 49//62 53//62
f 59//63 45//63 49//63
f 64//64 45//64 59//64
f 55//65 59//65 49//65
f 61//66 66//66 59//66 55//66 62//66
f 60//67 61//67 62//67
f 63//68 66//68 61//68
f 64//69 59//69 66//69
f 65//70 64//70 66//70
f 63//71 65//71 66//71
f 67//72 46//72 45//72
f 68//73 46//73 67//73
f 64//74 67//74 45//74
f 68//75 67//75 69//75
f 70//76 68//76 69//76
f 71//77 70//77 69//77
f 71//78 69//78 73//78
f 72//79 73//79 74//79
f 75//80 47//80 46//80
f 44//81 47//81 75//81
f 68//82 75//82 46//82
f 78//83 76//83 75//83 68//83 70//83
f 44//84 75//84 76//84
f 1//85 44//85 76//85
f 77//86 1//86 76//86
f 77//87 76//87 78//87
f 79//88 78//88 70//88
f 50//89 48//89 80//89
f 50//90 80//90 81//90
f 58//91 50//91 81//91
f 43//92 2//92 1//92
