# Blender v2.79 (sub 0) OBJ File: 'model.blend'
# www.blender.org
mtllib model.mtl
o Cube
v -0.499890 -1.207239 -0.499890
v 0.499890 -1.207239 -0.499890
v 0.499890 -1.207239 0.499890
v -0.499890 -1.207239 0.499890
v 0.499890 -0.499890 1.207239
v 0.499890 0.499890 1.207239
v -0.499890 0.499890 1.207239
v -0.499890 -0.499890 1.207239
v -1.207239 -0.499890 -0.499890
v -1.207239 -0.499890 0.499890
v -1.207239 0.499890 0.499890
v -1.207239 0.499890 -0.499890
v 0.499890 1.207239 0.499890
v 0.499890 1.207239 -0.499890
v -0.499890 1.207239 -0.499890
v -0.499890 1.207239 0.499890
v 0.499890 -0.499890 -1.207239
v -0.499890 -0.499890 -1.207239
v -0.499890 0.499890 -1.207239
v 0.499890 0.499890 -1.207239
v 1.207239 -0.499890 -0.499890
v 1.207239 0.499890 -0.499890
v 1.207239 0.499890 0.499890
v 1.207239 -0.499890 0.499890
vn 0.5774 -0.5774 -0.5774
vn 0.5774 0.5774 0.5774
vn -0.5774 -0.5774 0.5774
vn 0.5774 0.5774 -0.5774
vn -0.5774 0.5774 0.5774
vn -0.5774 0.5774 -0.5774
vn 0.5774 -0.5774 0.5774
vn 0.0000 -1.0000 0.0000
vn 0.0000 0.0000 1.0000
vn -1.0000 0.0000 0.0000
vn 0.0000 1.0000 -0.0000
vn 0.0000 0.0000 -1.0000
vn 1.0000 0.0000 0.0000
vn -0.7071 -0.7071 -0.0000
vn 0.0000 -0.7071 0.7071
vn -0.7071 0.0000 0.7071
vn 0.0000 0.7071 0.7071
vn -0.7071 0.7071 0.0000
vn 0.0000 -0.7071 -0.7071
vn -0.7071 -0.0000 -0.7071
vn 0.0000 0.7071 -0.7071
vn 0.7071 -0.7071 0.0000
vn 0.7071 -0.0000 0.7071
vn 0.7071 0.7071 -0.0000
vn 0.7071 0.0000 -0.7071
vn -0.5774 -0.5774 -0.5774
usemtl None
s off
f 2//1 17//1 21//1
f 13//2 6//2 23//2
f 4//3 8//3 10//3
f 14//4 22//4 20//4
f 7//5 16//5 11//5
f 15//6 19//6 12//6
f 3//7 24//7 5//7
f 1//8 2//8 3//8 4//8
f 5//9 6//9 7//9 8//9
f 9//10 10//10 11//10 12//10
f 13//11 14//11 15//11 16//11
f 17//12 18//12 19//12 20//12
f 21//13 22//13 23//13 24//13
f 9//14 1//14 4//14 10//14
f 3//15 5//15 8//15 4//15
f 7//16 11//16 10//16 8//16
f 6//17 13//17 16//17 7//17
f 15//18 12//18 11//18 16//18
f 17//19 2//19 1//19 18//19
f 12//20 19//20 18//20 9//20
f 14//21 20//21 19//21 15//21
f 2//22 21//22 24//22 3//22
f 23//23 6//23 5//23 24//23
f 22//24 14//24 13//24 23//24
f 20//25 22//25 21//25 17//25
f 1//26 9//26 18//26
