# Blender v2.79 (sub 0) OBJ File: 'model.blend'
# www.blender.org
mtllib model.mtl
o Cylinder.026_Cylinder.031
v -2.965722 -2.156727 -1.004419
v -0.913549 -3.668272 -0.406671
v -0.809027 -3.668272 0.587806
v -1.188957 -3.311445 1.441174
v -1.908219 -2.734086 1.827476
v -2.692080 -2.156727 1.599156
v 3.530097 -0.645244 1.255929
v 3.126321 -2.156715 0.174205
v 1.842447 -3.311476 0.309099
v 1.737945 -3.311466 -0.685425
v 2.536635 -2.734100 0.738914
v 0.890162 -1.799873 -3.228601
v -0.677665 -0.645141 -3.685133
v 0.251383 -0.288297 -3.782766
v 1.035317 -0.865655 -3.554502
v -0.038844 -2.156701 -3.130973
v -0.822779 -1.579343 -3.359237
v -1.751778 0.866276 -3.261331
v -1.032514 0.288986 -3.647732
v -2.221358 -2.156728 -2.206755
v -2.940622 -1.579438 -1.820354
v -3.320484 1.579687 -0.966557
v -2.730819 2.157088 -1.531274
v -2.350940 1.800355 -2.384757
v -2.560725 0.866223 -2.673524
v -3.150390 0.288823 -2.108808
v -3.530269 0.645555 -1.255325
v -3.295469 -0.645311 -1.782952
v -3.675341 -0.288568 -0.929470
v -1.412455 -2.156717 -2.794529
v -0.104536 -3.668272 -0.994501
v 0.104518 -3.668272 0.994543
v 0.809008 -3.668272 -0.587763
v 0.913536 -3.668272 0.406758
v -3.675281 -0.288339 -0.929851
v -3.295333 -0.645183 -1.783257
v -2.940545 -1.579385 -1.820560
v -3.700439 -0.865698 -0.113748
v -3.046533 1.579812 1.636447
v -3.021375 2.157143 0.820380
v -3.125907 2.157169 -0.174096
v -3.320201 1.579879 -0.967125
v -3.530043 0.645778 -1.255798
v -3.401613 -0.288406 1.673722
v -3.191771 0.645696 1.962394
v -2.852588 -0.645165 2.429470
v -2.497797 -1.579367 2.392195
v -3.241122 -1.799901 0.843471
v -3.595905 -0.865696 0.880761
v -3.345650 -1.799899 -0.151051
v -0.628528 -2.734087 -2.566262
v -0.653613 -3.311471 -1.750175
v -1.462615 -3.311481 -1.162370
v -2.246532 -2.734107 -1.390650
v -2.965833 -2.156762 -1.004283
v 0.612740 -2.156811 3.070543
v 0.104423 -3.668314 0.994378
v 1.541749 -1.799984 2.972943
v -1.714265 -2.156765 2.620224
v -1.908433 -2.734133 1.827164
v -1.189089 -3.311502 1.440914
v -0.275576 -3.311502 1.847724
v -0.800752 -2.156765 3.027034
v -1.035564 0.866187 3.554204
v -1.949035 0.866187 3.147412
v -2.498117 -1.579433 2.391807
v 0.103113 -0.645289 3.745416
v -0.251713 0.288855 3.782621
v -2.852952 -0.645330 2.428999
v -3.401938 -0.288542 1.673144
v -2.352785 2.157119 2.065525
v -3.046993 1.579760 1.635720
v -3.192207 0.645627 1.961771
v -2.643212 0.288854 2.717627
v -1.803791 1.800346 2.821380
v -2.692333 -2.156781 1.598764
v 1.032115 -0.288418 3.647811
v -0.106623 -1.579458 3.456782
v 1.751479 -0.865771 3.261573
v -0.081449 -2.734185 2.640729
v -0.809078 -3.668318 0.587541
v 0.913403 -3.668343 0.406682
v 2.730764 -2.156832 1.531919
v 3.320455 -1.579430 0.967231
v 1.411703 2.156899 2.794521
v 0.676977 0.645384 3.685145
v 2.560350 -0.865894 2.673992
v 3.150015 -0.288519 2.109330
v 2.220739 2.156972 2.206841
v 1.031943 -0.288752 3.647899
v 0.102911 -0.645668 3.745420
v 0.822010 1.579499 3.359210
v 0.038042 2.156739 3.130763
v 1.461898 3.311516 1.162240
v 0.627727 2.734135 2.566088
v 2.245874 2.734281 1.390673
v -1.036009 0.865708 3.554223
v -0.252050 0.288456 3.782672
v -1.949499 0.865592 3.147362
v -0.809555 3.667982 0.587263
v -1.738540 3.311068 0.684786
v -2.328227 2.733710 1.249442
v -1.804382 1.799749 2.821388
v -0.890941 1.799889 3.228248
v 0.652880 3.311434 1.749960
v 0.103885 3.668122 0.994123
v -2.536923 2.733491 -0.739639
v -3.126637 2.156106 -0.174958
v -3.022289 2.156216 0.819583
v -1.842861 3.310985 -0.309780
v -2.353379 2.156412 2.065587
v -3.047435 1.578922 1.635712
v 1.751294 -0.865962 3.261723
v 2.350708 -1.800080 2.385295
v 1.541651 -1.800148 2.973026
v 3.295094 0.645638 1.783424
v 3.675147 0.288880 0.930029
v 3.700211 0.866247 0.113929
v 1.188243 3.311462 -1.441000
v 0.912694 3.668222 0.406837
v 2.245770 2.734315 1.390929
v 2.965168 2.157111 1.004649
v 3.345204 1.800369 0.151293
v 3.240716 1.800351 -0.843188
v 2.691617 2.157066 -1.598935
v -0.809875 3.667855 0.587822
v 0.103656 3.668047 0.994592
v -1.542323 1.799343 -2.972944
v -2.351325 1.799168 -2.385215
v -2.731387 2.155910 -1.531870
v -1.843298 3.310811 -0.309083
v 0.080647 2.733873 -2.640790
v -0.613393 2.156368 -3.070565
v -3.320932 1.578411 -0.967130
v -2.537330 2.733332 -0.738823
v -3.126874 2.155833 -0.174082
v -0.914367 3.667837 -0.406704
v -1.738859 3.310836 0.685433
v 0.800023 2.156638 -3.027085
v 1.907674 2.734232 -1.827297
v 1.713564 2.156820 -2.620339
v 0.274708 3.311268 -1.847758
v 0.808190 3.668221 -0.587607
v -0.105346 3.668027 -0.994364
v 1.461819 3.311493 1.162619
v 0.652770 3.311316 1.750361
v 2.940104 1.579743 1.820749
v 2.220691 2.156997 2.207044
v 3.595729 0.866303 -0.880486
v 3.401577 0.288951 -1.673561
v 2.852439 0.645724 -2.429313
v 0.105823 1.579554 -3.456688
v 0.799961 2.156963 -3.026943
v 1.713483 2.157077 -2.620264
v 2.497453 1.579850 -2.391989
v 1.948667 -0.865797 -3.147720
v 1.035145 -0.865910 -3.554399
v -0.613555 2.156782 -3.070292
v 0.080614 2.734217 -2.640528
v 0.251175 -0.288684 -3.782674
v -0.677825 -0.645627 -3.684947
v -1.752169 0.865642 -3.261249
v -1.542542 1.799838 -2.972572
v -0.103804 0.645358 -3.745365
v -1.032799 0.288402 -3.647645
v -2.561136 0.865516 -2.673395
v -2.351509 1.799712 -2.384719
v 1.907612 2.734462 -1.827225
v 1.803566 -1.799956 -2.821873
v 2.352698 -2.156755 -2.066130
v 0.890021 -1.799982 -3.228608
v 1.035078 -0.865790 -3.554560
v 3.021823 -2.156732 -0.820240
v 2.327630 -2.734111 -1.250041
v 3.046887 -1.579364 -1.636338
v 3.191937 -0.645214 -1.962275
v 2.642797 -0.288428 -2.718019
vn -0.6038 -0.7946 0.0635
vn 0.9769 -0.1875 -0.1027
vn 0.6630 -0.7453 -0.0697
vn 0.2469 -0.7946 -0.5546
vn 0.0290 -0.3333 -0.9424
vn -0.5774 -0.1875 -0.7946
vn -0.8017 0.3334 -0.4962
vn -0.9136 0.0000 -0.4066
vn -0.1942 -0.5773 -0.7931
vn -0.2097 -0.9342 -0.2887
vn 0.0000 -1.0000 -0.0000
vn -0.9052 -0.3333 -0.2637
vn -0.9768 0.1877 0.1027
vn -0.8306 -0.3332 0.4461
vn -0.9291 -0.3567 0.0977
vn -0.3919 -0.7453 -0.5394
vn -0.6942 -0.5773 -0.4298
vn 0.3568 -0.7946 0.4912
vn -0.2712 -0.7453 0.6090
vn -0.3996 -0.1875 0.8973
vn -0.8091 0.0001 0.5877
vn -0.6810 0.3334 0.6520
vn -0.5898 -0.5773 0.5647
vn 0.2242 -0.3333 0.9158
vn -0.0251 -0.5773 0.8161
vn -0.1452 -0.9342 0.3260
vn 0.3549 -0.9342 -0.0373
vn 0.8016 -0.3333 0.4963
vn 0.5772 0.1877 0.7947
vn 0.1044 0.0000 0.9945
vn 0.1941 0.5774 0.7931
vn 0.3917 0.7454 0.5393
vn -0.0292 0.3333 0.9424
vn -0.3801 0.3568 0.8533
vn -0.2471 0.7947 0.5545
vn -0.6631 0.7453 0.0695
vn -0.7195 0.5773 0.3862
vn 0.5491 -0.3568 0.7558
vn 0.9051 0.3334 0.2637
vn 0.6036 0.7948 -0.0634
vn -0.0002 1.0000 0.0000
vn -0.3570 0.7946 -0.4912
vn -0.7841 0.5771 -0.2283
vn -0.3551 0.9341 0.0373
vn 0.2710 0.7454 -0.6090
vn 0.1449 0.9342 -0.3260
vn 0.2095 0.9342 0.2887
vn 0.6941 0.5774 0.4298
vn 0.8306 0.3335 -0.4461
vn 0.3995 0.1877 -0.8973
vn 0.0250 0.5774 -0.8161
vn -0.1046 -0.0000 -0.9945
vn -0.2244 0.3333 -0.9157
vn -0.5492 0.3568 -0.7557
vn 0.5896 0.5774 -0.5647
vn 0.6809 -0.3333 -0.6521
vn 0.3800 -0.3567 -0.8534
vn 0.7194 -0.5773 -0.3863
vn 0.7839 -0.5773 0.2283
vn 0.9135 0.0001 0.4068
vn 0.9290 0.3570 -0.0976
vn 0.8090 0.0001 -0.5878
usemtl None
s off
f 48//1 50//1 1//1 54//1 53//1 2//1 3//1 4//1 5//1 6//1
f 176//2 150//2 149//2 118//2 117//2 7//2 84//2 8//2 173//2 175//2
f 9//3 10//3 174//3 173//3 8//3 11//3
f 51//4 16//4 12//4 169//4 170//4 174//4 10//4 33//4 31//4 52//4
f 13//5 14//5 15//5 12//5 16//5 17//5
f 28//6 26//6 25//6 18//6 19//6 13//6 17//6 30//6 20//6 21//6
f 22//7 23//7 24//7 25//7 26//7 27//7
f 29//8 27//8 26//8 28//8
f 30//9 17//9 16//9 51//9
f 2//10 53//10 52//10 31//10
f 32//11 3//11 2//11 31//11 33//11 34//11
f 35//12 36//12 37//12 1//12 50//12 38//12
f 39//13 40//13 41//13 42//13 43//13 35//13 38//13 49//13 44//13 45//13
f 46//14 44//14 49//14 48//14 6//14 47//14
f 49//15 38//15 50//15 48//15
f 54//16 20//16 30//16 51//16 52//16 53//16
f 55//17 21//17 20//17 54//17
f 56//18 80//18 62//18 57//18 34//18 9//18 11//18 83//18 114//18 58//18
f 59//19 60//19 61//19 62//19 80//19 63//19
f 64//20 65//20 74//20 69//20 66//20 59//20 63//20 78//20 67//20 68//20
f 73//21 70//21 69//21 74//21
f 71//22 72//22 73//22 74//22 65//22 75//22
f 66//23 76//23 60//23 59//23
f 77//24 67//24 78//24 56//24 58//24 79//24
f 78//25 63//25 80//25 56//25
f 61//26 81//26 57//26 62//26
f 82//27 33//27 10//27 9//27
f 87//28 114//28 83//28 84//28 7//28 88//28
f 85//29 92//29 86//29 90//29 113//29 87//29 88//29 116//29 147//29 89//29
f 98//30 91//30 90//30 86//30
f 95//31 93//31 92//31 85//31
f 94//32 105//32 95//32 85//32 89//32 96//32
f 104//33 97//33 98//33 86//33 92//33 93//33
f 103//34 99//34 97//34 104//34
f 100//35 101//35 102//35 111//35 103//35 104//35 93//35 95//35 105//35 106//35
f 107//36 108//36 109//36 102//36 101//36 110//36
f 109//37 112//37 111//37 102//37
f 113//38 115//38 114//38 87//38
f 122//39 147//39 116//39 117//39 118//39 123//39
f 119//40 143//40 120//40 145//40 121//40 122//40 123//40 124//40 125//40 140//40
f 137//41 126//41 127//41 120//41 143//41 144//41
f 128//42 129//42 130//42 135//42 131//42 137//42 144//42 142//42 132//42 133//42
f 134//43 136//43 135//43 130//43
f 131//44 138//44 126//44 137//44
f 139//45 132//45 142//45 119//45 140//45 141//45
f 142//46 144//46 143//46 119//46
f 127//47 146//47 145//47 120//47
f 121//48 148//48 147//48 122//48
f 155//49 125//49 124//49 149//49 150//49 151//49
f 160//50 164//50 152//50 153//50 154//50 155//50 151//50 177//50 156//50 157//50
f 158//51 159//51 153//51 152//51
f 161//52 165//52 164//52 160//52
f 162//53 163//53 158//53 152//53 164//53 165//53
f 166//54 167//54 163//54 162//54
f 154//55 168//55 125//55 155//55
f 169//56 156//56 177//56 176//56 175//56 170//56
f 171//57 172//57 156//57 169//57
f 174//58 170//58 175//58 173//58
f 83//59 11//59 8//59 84//59
f 116//60 88//60 7//60 117//60
f 124//61 123//61 118//61 149//61
f 177//62 151//62 150//62 176//62
